# Blender v3.1.2 OBJ File: 'turret.blend'
# www.blender.org
mtllib turret.mtl
o Cube
v 1.000000 2.065815 1.000000
v 1.000000 2.065815 -1.000000
v 1.000000 0.065816 1.000000
v 1.000000 0.065816 -1.000000
v -1.000000 2.065815 1.000000
v -1.000000 2.065815 -1.000000
v -1.000000 0.065816 1.000000
v -1.000000 0.065816 -1.000000
v 1.000000 0.065816 1.000000
v -1.000000 0.065816 1.000000
v 1.000000 2.065815 1.000000
v -1.000000 2.065815 1.000000
v 1.000000 0.065816 1.000000
v -1.000000 0.065816 1.000000
v 1.000000 2.065815 1.000000
v -1.000000 2.065815 1.000000
v 0.277388 0.788427 8.265370
v -0.277388 0.788427 8.265370
v 0.277388 1.343204 8.265370
v -0.277388 1.343204 8.265370
v 0.000000 1.065816 8.030275
v 0.723607 0.540090 8.583056
v -0.276388 0.215166 8.583055
v -0.894426 1.065816 8.583060
v -0.276388 1.916465 8.583055
v 0.723607 1.591541 8.583056
v 0.276388 0.215166 9.477495
v -0.723607 0.540090 9.477495
v -0.723607 1.591541 9.477495
v 0.276388 1.916465 9.477495
v 0.894426 1.065816 9.477491
v 0.000000 1.065816 10.030275
v -0.162456 0.565820 8.179621
v 0.425323 0.756804 8.179622
v 0.262869 0.256804 8.504538
v 0.850648 1.065816 8.504539
v 0.425323 1.374827 8.179622
v -0.525730 1.065816 8.179624
v -0.688189 0.565819 8.504539
v -0.162456 1.565811 8.179621
v -0.688189 1.565813 8.504539
v 0.262869 1.874827 8.504538
v 0.951058 0.756803 9.030275
v 0.951058 1.374828 9.030275
v 0.000000 0.065816 9.030275
v 0.587786 0.256799 9.030275
v -0.951058 0.756803 9.030275
v -0.587786 0.256799 9.030275
v -0.587786 1.874832 9.030275
v -0.951058 1.374828 9.030275
v 0.587786 1.874832 9.030275
v 0.000000 2.065815 9.030275
v 0.688189 0.565819 9.556012
v -0.262869 0.256804 9.556013
v -0.850648 1.065816 9.556011
v -0.262869 1.874827 9.556013
v 0.688189 1.565813 9.556012
v 0.162456 0.565820 9.880930
v 0.525730 1.065816 9.880927
v -0.425323 0.756804 9.880930
v -0.425323 1.374827 9.880930
v 0.162456 1.565811 9.880930
v 0.920405 0.944435 9.123624
v 0.920405 0.944435 9.366385
v 0.920405 1.187196 9.123624
v 0.920405 1.187196 9.366385
v 1.163166 0.944435 9.123624
v 1.163166 0.944435 9.366385
v 1.163166 1.187196 9.123624
v 1.163166 1.187196 9.366385
v 2.052817 1.282862 9.462051
v 2.052817 1.282862 9.027958
v 2.052817 0.848769 9.027958
v 2.052817 0.848769 9.462051
v -1.000000 2.065815 -1.000000
v -1.000000 0.065816 -1.000000
v 1.000000 2.065815 -1.000000
v 1.000000 0.065816 -1.000000
v -1.000000 2.065815 -1.000000
v -1.000000 0.065816 -1.000000
v 1.000000 2.065815 -1.000000
v 1.000000 0.065816 -1.000000
v -1.000000 2.065815 -1.000000
v -1.000000 0.065816 -1.000000
v 1.000000 2.065815 -1.000000
v 1.000000 0.065816 -1.000000
v 1.000000 0.065816 1.000000
v 1.000000 0.065816 -1.000000
v 1.000000 2.065815 1.000000
v 1.000000 2.065815 -1.000000
v -1.000000 0.065816 1.000000
v -1.000000 0.065816 -1.000000
v -1.000000 2.065815 1.000000
v -1.000000 2.065815 -1.000000
v 1.000000 2.065815 1.000000
v -1.000000 2.065815 1.000000
v 1.000000 0.065816 1.000000
v -1.000000 0.065816 1.000000
v 1.000000 2.065815 1.000000
v -1.000000 2.065815 1.000000
v 1.000000 0.065816 1.000000
v -1.000000 0.065816 1.000000
v 0.277388 1.343204 8.265370
v -0.277388 1.343204 8.265370
v 0.277388 0.788427 8.265370
v -0.277388 0.788427 8.265370
v 0.723607 1.591541 8.583056
v -0.276388 1.916465 8.583055
v -0.276388 0.215166 8.583055
v 0.723607 0.540090 8.583056
v 0.276388 1.916465 9.477495
v -0.723607 1.591541 9.477495
v -0.723607 0.540090 9.477495
v 0.276388 0.215166 9.477495
v -0.162456 1.565811 8.179621
v 0.425323 1.374827 8.179622
v 0.262869 1.874827 8.504538
v 0.425323 0.756804 8.179622
v -0.688189 1.565813 8.504539
v -0.162456 0.565820 8.179621
v -0.688189 0.565819 8.504539
v 0.262869 0.256804 8.504538
v 0.951058 1.374828 9.030275
v 0.951058 0.756803 9.030275
v 0.000000 2.065815 9.030275
v 0.587786 1.874832 9.030275
v -0.951058 1.374828 9.030275
v -0.587786 1.874832 9.030275
v -0.587786 0.256799 9.030275
v -0.951058 0.756803 9.030275
v 0.587786 0.256799 9.030275
v 0.000000 0.065816 9.030275
v 0.688189 1.565813 9.556012
v -0.262869 1.874827 9.556013
v -0.262869 0.256804 9.556013
v 0.688189 0.565819 9.556012
v 0.162456 1.565811 9.880930
v -0.425323 1.374827 9.880930
v -0.425323 0.756804 9.880930
v 0.162456 0.565820 9.880930
v 0.920405 1.187196 9.123624
v 0.920405 1.187196 9.366385
v 0.920405 0.944435 9.123624
v 0.920405 0.944435 9.366385
v 1.163166 1.187196 9.123624
v 1.163166 1.187196 9.366385
v 1.163166 0.944435 9.123624
v 1.163166 0.944435 9.366385
v 2.052817 0.848769 9.462051
v 2.052817 0.848769 9.027958
v 2.052817 1.282862 9.027958
v 2.052817 1.282862 9.462051
v -1.000000 0.065816 -1.000000
v -1.000000 2.065815 -1.000000
v 1.000000 0.065816 -1.000000
v 1.000000 2.065815 -1.000000
v -1.000000 0.065816 -1.000000
v -1.000000 2.065815 -1.000000
v 1.000000 0.065816 -1.000000
v 1.000000 2.065815 -1.000000
v -1.000000 0.065816 -1.000000
v -1.000000 2.065815 -1.000000
v 1.000000 0.065816 -1.000000
v 1.000000 2.065815 -1.000000
vt 0.374695 0.681252
vt 0.374695 0.681252
vt 0.374695 0.681252
vt 0.374695 0.681252
vt 0.749375 0.680205
vt 0.749375 0.867547
vt 0.562034 0.867526
vt 0.562034 0.680184
vt 0.562014 0.868604
vt 0.374695 0.868604
vt 0.562014 0.681252
vt 0.187352 0.681252
vt 0.187352 0.868592
vt 0.187352 0.868592
vt 0.187352 0.681252
vt 0.178889 0.692540
vt 0.178889 0.876336
vt 0.000000 0.865541
vt 0.000000 0.681744
vt 0.374695 0.868614
vt 0.374695 0.681252
vt 0.374695 0.681252
vt 0.374695 0.681252
vt 0.374695 0.681252
vt 0.374695 0.681252
vt 0.374695 0.681252
vt 0.000000 0.000000
vt 0.187352 0.000000
vt 0.119661 0.681744
vt 0.067691 0.681744
vt 0.374695 0.681252
vt 0.374695 0.681252
vt 0.691390 0.867547
vt 0.743354 0.867547
vt 0.743354 0.919517
vt 0.691390 0.919517
vt 0.374693 0.000000
vt 0.306332 0.681252
vt 0.254365 0.681252
vt 0.374693 0.000000
vt 0.562034 0.000000
vt 0.495021 0.681252
vt 0.443054 0.681252
vt 0.741248 0.680183
vt 0.562034 0.680183
vt 0.605889 0.000000
vt 0.655601 0.000000
vt 0.775912 0.796127
vt 0.825160 0.801119
vt 0.796213 0.838490
vt 0.874408 0.796126
vt 0.854108 0.750980
vt 0.749375 0.811448
vt 0.749375 0.757365
vt 0.796213 0.750981
vt 0.880641 0.944239
vt 0.847033 0.982581
vt 0.836018 0.932457
vt 0.600377 0.905968
vt 0.643267 0.878382
vt 0.641393 0.933154
vt 0.817033 0.224488
vt 0.863871 0.217498
vt 0.845981 0.266274
vt 0.780417 0.618332
vt 0.741248 0.623921
vt 0.752762 0.575360
vt 0.873699 0.621430
vt 0.830585 0.627486
vt 0.862805 0.579385
vt 0.874804 0.893528
vt 0.591188 0.956236
vt 0.788086 0.266274
vt 0.807975 0.577563
vt 0.825160 0.710827
vt 0.825160 0.680184
vt 0.871999 0.707226
vt 0.853536 0.850602
vt 0.820086 0.877419
vt 0.805323 0.838490
vt 0.749211 0.376668
vt 0.790293 0.346873
vt 0.779156 0.394713
vt 0.767786 0.308562
vt 0.817033 0.315692
vt 0.788086 0.346872
vt 0.835233 0.536497
vt 0.784982 0.527260
vt 0.825602 0.497992
vt 0.787551 0.916833
vt 0.749374 0.932456
vt 0.766538 0.877419
vt 0.870206 0.416701
vt 0.839894 0.466024
vt 0.821302 0.420485
vt 0.888570 0.462258
vt 0.852545 0.497991
vt 0.783622 0.452434
vt 0.801986 0.497991
vt 0.756810 0.474870
vt 0.741248 0.426679
vt 0.866281 0.308562
vt 0.845980 0.346872
vt 0.832667 0.372628
vt 0.639311 0.988424
vt 0.682247 0.960731
vt 0.688020 1.000000
vt 0.881343 0.368861
vt 0.792316 0.966472
vt 0.760388 0.982581
vt 0.873699 0.530207
vt 0.741300 0.532748
vt 0.596833 1.000000
vt 0.741248 0.266914
vt 0.770196 0.217498
vt 0.892819 0.266914
vt 0.562034 0.915730
vt 0.691390 0.910571
vt 0.685435 0.867548
vt 0.778322 0.707226
vt 0.789345 0.656136
vt 0.770196 0.187992
vt 0.817033 0.187352
vt 0.863871 0.187992
vt 0.594221 0.867615
vt 0.854108 0.838490
vt 0.763985 0.678876
vt 0.741248 0.678876
vt 0.741248 0.656135
vt 0.763985 0.656135
vt 0.897611 0.346873
vt 0.920351 0.346873
vt 0.920353 0.369612
vt 0.897614 0.369612
vt 0.929232 0.453046
vt 0.888570 0.453046
vt 0.906027 0.702923
vt 0.883287 0.702923
vt 0.883290 0.680184
vt 0.906030 0.680184
vt 0.889602 0.917346
vt 0.889602 0.899275
vt 0.912343 0.899275
vt 0.912343 0.917346
vt 0.905401 0.581447
vt 0.905401 0.604185
vt 0.882660 0.604185
vt 0.882660 0.581447
vt 0.413522 0.870947
vt 0.413522 0.910839
vt 0.374695 0.908496
vt 0.374695 0.868604
vt 0.915071 0.786357
vt 0.874409 0.786357
vt 0.880641 0.838490
vt 0.921305 0.838490
vt 0.873699 0.497991
vt 0.914363 0.497991
vt 0.178889 0.692540
vt 0.000000 0.681744
vt 0.000000 0.681744
vt 0.178889 0.692540
vt 0.562034 0.680184
vt 0.749375 0.680205
vt 0.562014 0.681252
vt 0.562014 0.868604
vt 0.187352 0.681252
vt 0.187352 0.868592
vt 0.187352 0.868592
vt 0.187352 0.681252
vt 0.562034 0.680184
vt 0.749375 0.680205
vt 0.562014 0.681252
vt 0.562014 0.868604
vt 0.890129 0.187352
vt 0.741248 0.187352
vt 0.741248 0.000000
vt 0.890129 0.000000
vt 0.562034 0.680184
vt 0.749375 0.680205
vt 0.562014 0.681252
vt 0.562014 0.868604
vt 0.000000 0.681744
vt 0.178889 0.692540
vt 0.374695 0.681252
vt 0.374695 0.681252
vt 0.374695 0.681252
vt 0.374695 0.681252
vt 0.749375 0.680205
vt 0.562034 0.680184
vt 0.562034 0.867526
vt 0.749375 0.867547
vt 0.562014 0.868604
vt 0.562014 0.681252
vt 0.374695 0.868604
vt 0.187352 0.681252
vt 0.187352 0.681252
vt 0.187352 0.868592
vt 0.187352 0.868592
vt 0.178889 0.692540
vt 0.000000 0.681744
vt 0.000000 0.865541
vt 0.178889 0.876336
vt 0.374695 0.868614
vt 0.374695 0.681252
vt 0.374695 0.681252
vt 0.374695 0.681252
vt 0.374695 0.681252
vt 0.374695 0.681252
vt 0.374695 0.681252
vt 0.000000 0.000000
vt 0.067691 0.681744
vt 0.119661 0.681744
vt 0.187352 0.000000
vt 0.374695 0.681252
vt 0.374695 0.681252
vt 0.691390 0.867547
vt 0.691390 0.919517
vt 0.743354 0.919517
vt 0.743354 0.867547
vt 0.254365 0.681252
vt 0.306332 0.681252
vt 0.374693 0.000000
vt 0.374693 0.000000
vt 0.443054 0.681252
vt 0.495021 0.681252
vt 0.562034 0.000000
vt 0.741248 0.680183
vt 0.655601 0.000000
vt 0.605889 0.000000
vt 0.562034 0.680183
vt 0.796213 0.838490
vt 0.825160 0.801119
vt 0.874408 0.796126
vt 0.749375 0.757365
vt 0.796213 0.750981
vt 0.880641 0.944239
vt 0.836018 0.932457
vt 0.600377 0.905968
vt 0.641393 0.933154
vt 0.643267 0.878382
vt 0.845981 0.266274
vt 0.863871 0.217498
vt 0.780417 0.618332
vt 0.752762 0.575360
vt 0.741248 0.623921
vt 0.873699 0.621430
vt 0.862805 0.579385
vt 0.830585 0.627486
vt 0.874804 0.893528
vt 0.591188 0.956236
vt 0.788086 0.266274
vt 0.807975 0.577563
vt 0.825160 0.710827
vt 0.871999 0.707226
vt 0.825160 0.680184
vt 0.853536 0.850602
vt 0.805323 0.838490
vt 0.820086 0.877419
vt 0.749211 0.376668
vt 0.779156 0.394713
vt 0.790293 0.346873
vt 0.767786 0.308562
vt 0.788086 0.346872
vt 0.835233 0.536497
vt 0.825602 0.497992
vt 0.784982 0.527260
vt 0.749374 0.932456
vt 0.839894 0.466024
vt 0.888570 0.462258
vt 0.852545 0.497991
vt 0.783622 0.452434
vt 0.801986 0.497991
vt 0.756810 0.474870
vt 0.845980 0.346872
vt 0.866281 0.308562
vt 0.832667 0.372628
vt 0.639311 0.988424
vt 0.688020 1.000000
vt 0.682247 0.960731
vt 0.881343 0.368861
vt 0.792316 0.966472
vt 0.760388 0.982581
vt 0.873699 0.530207
vt 0.741300 0.532748
vt 0.596833 1.000000
vt 0.741248 0.266914
vt 0.770196 0.217498
vt 0.892819 0.266914
vt 0.562034 0.915730
vt 0.691390 0.910571
vt 0.685435 0.867548
vt 0.778322 0.707226
vt 0.789345 0.656136
vt 0.770196 0.187992
vt 0.863871 0.187992
vt 0.594221 0.867615
vt 0.854108 0.838490
vt 0.763985 0.678876
vt 0.763985 0.656135
vt 0.741248 0.656135
vt 0.741248 0.678876
vt 0.897611 0.346873
vt 0.897614 0.369612
vt 0.920353 0.369612
vt 0.920351 0.346873
vt 0.888570 0.453046
vt 0.929232 0.453046
vt 0.906027 0.702923
vt 0.906030 0.680184
vt 0.883290 0.680184
vt 0.883287 0.702923
vt 0.889602 0.917346
vt 0.912343 0.917346
vt 0.912343 0.899275
vt 0.889602 0.899275
vt 0.905401 0.581447
vt 0.882660 0.581447
vt 0.882660 0.604185
vt 0.905401 0.604185
vt 0.413522 0.870947
vt 0.374695 0.868604
vt 0.374695 0.908496
vt 0.413522 0.910839
vt 0.874409 0.786357
vt 0.915071 0.786357
vt 0.921305 0.838490
vt 0.880641 0.838490
vt 0.914363 0.497991
vt 0.873699 0.497991
vt 0.178889 0.692540
vt 0.178889 0.692540
vt 0.000000 0.681744
vt 0.000000 0.681744
vt 0.749375 0.680205
vt 0.562034 0.680184
vt 0.562014 0.868604
vt 0.562014 0.681252
vt 0.187352 0.681252
vt 0.187352 0.681252
vt 0.187352 0.868592
vt 0.187352 0.868592
vt 0.749375 0.680205
vt 0.562034 0.680184
vt 0.562014 0.868604
vt 0.562014 0.681252
vt 0.890129 0.187352
vt 0.890129 0.000000
vt 0.741248 0.000000
vt 0.741248 0.187352
vt 0.749375 0.680205
vt 0.562034 0.680184
vt 0.562014 0.868604
vt 0.562014 0.681252
vt 0.178889 0.692540
vt 0.000000 0.681744
vn 0.0000 0.0000 1.0000
vn 0.0000 -1.0000 0.0000
vn -1.0000 0.0000 0.0000
vn 1.0000 0.0000 0.0000
vn 0.0000 1.0000 0.0000
vn -0.9951 0.0000 0.0990
vn 0.0000 -0.9951 0.0990
vn 0.0000 0.9951 0.0990
vn 0.9951 0.0000 0.0990
vn 0.1024 -0.3151 -0.9435
vn 0.7002 -0.2680 -0.6617
vn -0.2680 -0.1947 -0.9435
vn -0.2680 0.1947 -0.9435
vn 0.1024 0.3151 -0.9435
vn 0.9050 -0.2680 -0.3304
vn 0.0247 -0.9435 -0.3304
vn -0.8897 -0.3151 -0.3304
vn -0.5746 0.7488 -0.3304
vn 0.5346 0.7779 -0.3304
vn 0.8026 -0.5831 -0.1256
vn -0.3066 -0.9435 -0.1256
vn -0.9921 0.0000 -0.1256
vn -0.3066 0.9435 -0.1256
vn 0.8026 0.5831 -0.1256
vn 0.4089 -0.6284 0.6617
vn -0.4713 -0.5831 0.6617
vn -0.7002 0.2680 0.6617
vn 0.0385 0.7488 0.6617
vn 0.7240 0.1947 0.6617
vn 0.2680 0.1947 0.9435
vn 0.4911 0.3568 0.7947
vn 0.4089 0.6284 0.6617
vn -0.1024 0.3151 0.9435
vn -0.1876 0.5773 0.7947
vn -0.4713 0.5831 0.6617
vn -0.3313 0.0000 0.9435
vn -0.6071 0.0000 0.7947
vn -0.7002 -0.2680 0.6617
vn -0.1024 -0.3151 0.9435
vn -0.1876 -0.5773 0.7947
vn 0.0385 -0.7488 0.6617
vn 0.2680 -0.1947 0.9435
vn 0.4911 -0.3568 0.7947
vn 0.7240 -0.1947 0.6617
vn 0.8897 0.3151 0.3304
vn 0.7947 0.5773 0.1876
vn 0.5746 0.7488 0.3304
vn -0.0247 0.9435 0.3304
vn -0.3035 0.9342 0.1876
vn -0.5346 0.7779 0.3304
vn -0.9050 0.2680 0.3304
vn -0.9822 0.0000 0.1876
vn -0.9050 -0.2680 0.3304
vn -0.5346 -0.7779 0.3304
vn -0.3035 -0.9342 0.1876
vn -0.0247 -0.9435 0.3304
vn 0.5746 -0.7488 0.3304
vn 0.7947 -0.5773 0.1876
vn 0.8897 -0.3151 0.3304
vn 0.3066 0.9435 0.1256
vn 0.3035 0.9342 -0.1876
vn 0.0247 0.9435 -0.3304
vn -0.8026 0.5831 0.1256
vn -0.7947 0.5773 -0.1876
vn -0.8897 0.3151 -0.3304
vn -0.8026 -0.5831 0.1256
vn -0.7947 -0.5773 -0.1876
vn -0.5746 -0.7488 -0.3304
vn 0.3066 -0.9435 0.1256
vn 0.3035 -0.9342 -0.1876
vn 0.5346 -0.7779 -0.3304
vn 0.9921 0.0000 0.1256
vn 0.9822 0.0000 -0.1876
vn 0.9050 0.2680 -0.3304
vn 0.4713 0.5831 -0.6617
vn 0.1876 0.5773 -0.7947
vn -0.0385 0.7488 -0.6617
vn -0.4089 0.6284 -0.6617
vn -0.4911 0.3568 -0.7947
vn -0.7240 0.1947 -0.6617
vn -0.7240 -0.1947 -0.6617
vn -0.4911 -0.3568 -0.7947
vn -0.4089 -0.6284 -0.6617
vn 0.7002 0.2680 -0.6617
vn 0.6071 0.0000 -0.7947
vn 0.3313 0.0000 -0.9435
vn -0.0385 -0.7488 -0.6617
vn 0.1876 -0.5773 -0.7947
vn 0.4713 -0.5831 -0.6617
vn -0.1069 0.9943 0.0000
vn 0.0000 0.0000 -1.0000
vn -0.1069 -0.9943 0.0000
vn -0.1069 0.0000 -0.9943
vn -0.1069 0.0000 0.9943
usemtl Material
s off
f 5/1/1 7/2/1 10/3/1 12/4/1
f 4/5/2 3/6/2 7/7/2 8/8/2
f 8/9/3 7/10/3 5/1/3 6/11/3
f 6/12/1 2/13/1 77/14/1 75/15/1
f 2/16/4 1/17/4 3/18/4 4/19/4
f 6/12/5 5/1/5 1/20/5 2/13/5
f 11/21/1 12/4/1 16/22/1 15/23/1
f 3/24/1 1/25/1 11/21/1 9/26/1
f 1/25/1 5/1/1 12/4/1 11/21/1
f 7/2/1 3/24/1 9/26/1 10/3/1
f 16/27/6 14/28/6 18/29/6 20/30/6
f 9/26/1 11/21/1 15/23/1 13/31/1
f 12/4/1 10/3/1 14/32/1 16/22/1
f 10/3/1 9/26/1 13/31/1 14/32/1
f 19/33/1 20/34/1 18/35/1 17/36/1
f 14/28/7 13/37/7 17/38/7 18/39/7
f 15/40/8 16/41/8 20/42/8 19/43/8
f 13/44/9 15/45/9 19/46/9 17/47/9
f 21/48/10 34/49/10 33/50/10
f 22/51/11 34/49/11 36/52/11
f 21/48/12 33/50/12 38/53/12
f 21/48/13 38/53/13 40/54/13
f 21/48/14 40/54/14 37/55/14
f 22/56/15 36/57/15 43/58/15
f 23/59/16 35/60/16 45/61/16
f 24/62/17 39/63/17 47/64/17
f 25/65/18 41/66/18 49/67/18
f 26/68/19 42/69/19 51/70/19
f 22/56/20 43/58/20 46/71/20
f 23/59/21 45/61/21 48/72/21
f 24/62/22 47/64/22 50/73/22
f 25/65/23 49/67/23 52/74/23
f 26/75/24 51/76/24 44/77/24
f 27/78/25 53/79/25 58/80/25
f 28/81/26 54/82/26 60/83/26
f 29/84/27 55/85/27 61/86/27
f 30/87/28 56/88/28 62/89/28
f 31/90/29 57/91/29 59/92/29
f 59/93/30 62/94/30 32/95/30
f 59/93/31 57/96/31 62/94/31
f 57/96/32 30/97/32 62/94/32
f 62/94/33 61/98/33 32/95/33
f 62/94/34 56/99/34 61/98/34
f 56/99/35 29/100/35 61/98/35
f 61/98/36 60/83/36 32/95/36
f 61/98/37 55/101/37 60/83/37
f 55/85/38 28/102/38 60/103/38
f 60/83/39 58/104/39 32/95/39
f 60/83/40 54/82/40 58/104/40
f 54/105/41 27/106/41 58/107/41
f 58/104/42 59/93/42 32/95/42
f 58/104/43 53/108/43 59/93/43
f 53/79/44 31/90/44 59/92/44
f 44/109/45 57/91/45 31/90/45
f 44/109/46 51/110/46 57/91/46
f 51/70/47 30/87/47 57/111/47
f 52/74/48 56/88/48 30/87/48
f 52/74/49 49/67/49 56/88/49
f 49/67/50 29/112/50 56/88/50
f 50/73/51 55/85/51 29/84/51
f 50/73/52 47/64/52 55/85/52
f 47/64/53 28/102/53 55/85/53
f 48/72/54 54/105/54 28/113/54
f 48/72/55 45/61/55 54/105/55
f 45/61/56 27/106/56 54/105/56
f 46/71/57 53/79/57 27/78/57
f 46/71/58 43/58/58 53/79/58
f 43/58/59 31/90/59 53/79/59
f 51/70/60 52/74/60 30/87/60
f 51/70/61 42/69/61 52/74/61
f 42/69/62 25/65/62 52/74/62
f 49/114/63 50/73/63 29/84/63
f 49/114/64 41/115/64 50/73/64
f 41/115/65 24/62/65 50/73/65
f 47/64/66 48/116/66 28/102/66
f 47/64/67 39/63/67 48/116/67
f 39/117/68 23/59/68 48/72/68
f 45/61/69 46/118/69 27/106/69
f 45/61/70 35/60/70 46/118/70
f 35/60/71 22/119/71 46/118/71
f 43/58/72 44/109/72 31/90/72
f 43/58/73 36/57/73 44/109/73
f 36/52/74 26/75/74 44/77/74
f 37/55/75 42/120/75 26/75/75
f 37/55/76 40/54/76 42/120/76
f 40/121/77 25/65/77 42/69/77
f 40/121/78 41/66/78 25/65/78
f 40/122/79 38/123/79 41/115/79
f 38/123/80 24/62/80 41/115/80
f 38/123/81 39/63/81 24/62/81
f 38/123/82 33/124/82 39/63/82
f 33/125/83 23/59/83 39/117/83
f 36/52/84 37/55/84 26/75/84
f 36/52/85 34/49/85 37/55/85
f 34/49/86 21/48/86 37/55/86
f 33/125/87 35/60/87 23/59/87
f 33/50/88 34/49/88 35/126/88
f 34/49/89 22/51/89 35/126/89
f 63/127/3 64/128/3 66/129/3 65/130/3
f 65/131/5 66/132/5 70/133/5 69/134/5
f 69/134/90 70/133/90 71/135/90 72/136/90
f 67/137/2 68/138/2 64/139/2 63/140/2
f 65/141/91 69/142/91 67/143/91 63/144/91
f 70/145/1 66/146/1 64/147/1 68/148/1
f 72/149/4 71/150/4 74/151/4 73/152/4
f 68/138/92 67/137/92 73/153/92 74/154/92
f 67/143/93 69/142/93 72/155/93 73/156/93
f 70/145/94 68/148/94 74/157/94 71/158/94
f 77/159/1 78/160/1 82/161/1 81/162/1
f 4/5/1 8/8/1 76/163/1 78/164/1
f 8/9/1 6/11/1 75/165/1 76/166/1
f 2/16/1 4/19/1 78/160/1 77/159/1
f 79/167/1 81/168/1 85/169/1 83/170/1
f 75/15/1 77/14/1 81/168/1 79/167/1
f 78/164/1 76/163/1 80/171/1 82/172/1
f 76/166/1 75/165/1 79/173/1 80/174/1
f 83/175/91 85/176/91 86/177/91 84/178/91
f 82/172/1 80/171/1 84/179/1 86/180/1
f 80/174/1 79/173/1 83/181/1 84/182/1
f 81/162/1 82/161/1 86/183/1 85/184/1
f 91/185/1 98/186/1 96/187/1 93/188/1
f 90/189/5 94/190/5 93/191/5 89/192/5
f 94/193/3 92/194/3 91/185/3 93/195/3
f 92/196/1 153/197/1 155/198/1 88/199/1
f 88/200/4 90/201/4 89/202/4 87/203/4
f 92/196/2 88/199/2 87/204/2 91/185/2
f 97/205/1 101/206/1 102/207/1 98/186/1
f 89/208/1 95/209/1 97/205/1 87/210/1
f 87/210/1 97/205/1 98/186/1 91/185/1
f 93/188/1 96/187/1 95/209/1 89/208/1
f 102/211/6 106/212/6 104/213/6 100/214/6
f 95/209/1 99/215/1 101/206/1 97/205/1
f 98/186/1 102/207/1 100/216/1 96/187/1
f 96/187/1 100/216/1 99/215/1 95/209/1
f 105/217/1 103/218/1 104/219/1 106/220/1
f 100/214/8 104/221/8 103/222/8 99/223/8
f 101/224/7 105/225/7 106/226/7 102/227/7
f 99/228/9 103/229/9 105/230/9 101/231/9
f 21/48/14 115/232/14 116/233/14
f 107/234/84 36/52/84 116/233/84
f 21/48/13 38/53/13 115/232/13
f 21/48/12 120/235/12 38/53/12
f 21/48/10 118/236/10 120/235/10
f 107/237/74 123/238/74 36/57/74
f 108/239/62 125/240/62 117/241/62
f 24/62/65 127/242/65 119/243/65
f 109/244/68 129/245/68 121/246/68
f 110/247/71 131/248/71 122/249/71
f 107/237/24 126/250/24 123/238/24
f 108/239/23 128/251/23 125/240/23
f 24/62/22 130/252/22 127/242/22
f 109/244/21 132/253/21 129/245/21
f 110/254/20 124/255/20 131/256/20
f 111/257/32 137/258/32 133/259/32
f 112/260/35 138/261/35 134/262/35
f 113/263/38 139/264/38 55/85/38
f 114/265/41 140/266/41 135/267/41
f 31/90/44 59/92/44 136/268/44
f 59/93/42 32/95/42 140/269/42
f 59/93/43 140/269/43 136/270/43
f 136/270/25 140/269/25 114/271/25
f 140/269/39 32/95/39 139/272/39
f 140/269/40 139/272/40 135/273/40
f 135/273/26 139/272/26 113/274/26
f 139/272/36 32/95/36 138/261/36
f 139/272/37 138/261/37 55/101/37
f 55/85/27 138/275/27 112/276/27
f 138/261/33 32/95/33 137/277/33
f 138/261/34 137/277/34 134/262/34
f 134/278/28 137/279/28 111/280/28
f 137/277/30 32/95/30 59/93/30
f 137/277/31 59/93/31 133/281/31
f 133/259/29 59/92/29 31/90/29
f 124/282/59 31/90/59 136/268/59
f 124/282/58 136/268/58 131/283/58
f 131/248/57 136/284/57 114/265/57
f 132/253/56 114/265/56 135/267/56
f 132/253/55 135/267/55 129/245/55
f 129/245/54 135/267/54 113/285/54
f 130/252/53 113/263/53 55/85/53
f 130/252/52 55/85/52 127/242/52
f 127/242/51 55/85/51 112/276/51
f 128/251/50 112/286/50 134/278/50
f 128/251/49 134/278/49 125/240/49
f 125/240/48 134/278/48 111/280/48
f 126/250/47 111/257/47 133/259/47
f 126/250/46 133/259/46 123/238/46
f 123/238/45 133/259/45 31/90/45
f 131/248/69 114/265/69 132/253/69
f 131/248/70 132/253/70 122/249/70
f 122/249/16 132/253/16 109/244/16
f 129/287/66 113/263/66 130/252/66
f 129/287/67 130/252/67 121/288/67
f 121/288/17 130/252/17 24/62/17
f 127/242/63 112/276/63 128/289/63
f 127/242/64 128/289/64 119/243/64
f 119/290/18 128/251/18 108/239/18
f 125/240/60 111/280/60 126/291/60
f 125/240/61 126/291/61 117/241/61
f 117/241/19 126/291/19 107/292/19
f 123/238/72 31/90/72 124/282/72
f 123/238/73 124/282/73 36/57/73
f 36/52/15 124/255/15 110/254/15
f 118/236/89 110/254/89 122/293/89
f 118/236/88 122/293/88 120/235/88
f 120/294/87 122/249/87 109/244/87
f 120/294/83 109/244/83 121/246/83
f 120/295/82 121/288/82 38/123/82
f 38/123/81 121/288/81 24/62/81
f 38/123/80 24/62/80 119/243/80
f 38/123/79 119/243/79 115/296/79
f 115/297/78 119/290/78 108/239/78
f 36/52/11 110/254/11 118/236/11
f 36/52/85 118/236/85 116/233/85
f 116/233/86 118/236/86 21/48/86
f 115/297/77 108/239/77 117/241/77
f 115/232/76 117/298/76 116/233/76
f 116/233/75 117/298/75 107/234/75
f 141/299/3 143/300/3 144/301/3 142/302/3
f 143/303/2 147/304/2 148/305/2 144/306/2
f 147/304/92 150/307/92 149/308/92 148/305/92
f 145/309/5 141/310/5 142/311/5 146/312/5
f 143/313/91 141/314/91 145/315/91 147/316/91
f 148/317/1 146/318/1 142/319/1 144/320/1
f 150/321/4 151/322/4 152/323/4 149/324/4
f 146/312/90 152/325/90 151/326/90 145/309/90
f 145/315/93 151/327/93 150/328/93 147/316/93
f 148/317/94 149/329/94 152/330/94 146/318/94
f 155/331/1 159/332/1 160/333/1 156/334/1
f 90/189/1 156/335/1 154/336/1 94/190/1
f 94/193/1 154/337/1 153/338/1 92/194/1
f 88/200/1 155/331/1 156/334/1 90/201/1
f 157/339/1 161/340/1 163/341/1 159/342/1
f 153/197/1 157/339/1 159/342/1 155/198/1
f 156/335/1 160/343/1 158/344/1 154/336/1
f 154/337/1 158/345/1 157/346/1 153/338/1
f 161/347/91 162/348/91 164/349/91 163/350/91
f 160/343/1 164/351/1 162/352/1 158/344/1
f 158/345/1 162/353/1 161/354/1 157/346/1
f 159/332/1 163/355/1 164/356/1 160/333/1
